<svg xmlns="http://www.w3.org/2000/svg" width="47" height="47" fill="none"><path fill="#EAEAE4" fill-rule="evenodd" d="M27.51 13.169a7.434 7.434 0 0 1 3.554 5.548l11.587 9.25c.797.637.845 1.843.102 2.586L30.28 43.027c-.757.757-1.988.691-2.614-.139l-8.914-11.82a7.435 7.435 0 0 1-5.582-3.557c-2.132.505-4.445-.056-6.082-1.694-2.536-2.535-2.491-6.692.1-9.282.147-.148.3-.287.456-.418-.697-2.291-.12-4.91 1.722-6.752 1.842-1.841 4.46-2.42 6.752-1.722.131-.157.27-.31.418-.456 2.59-2.591 6.747-2.636 9.282-.1 1.638 1.637 2.2 3.95 1.694 6.082Z" clip-rule="evenodd"/><path fill="#463403" fill-rule="evenodd" d="m9.648 16.679-.913.762a5.048 5.048 0 0 0-.336.306c-1.892 1.893-1.939 4.947-.064 6.822 1.208 1.208 2.91 1.62 4.479 1.249l1.219-.29.634 1.053a5.758 5.758 0 0 0 4.32 2.756l.728.079.437.578 1.762 2.337c.362-.582.928-1.272 1.759-2.102 1.81-1.81 3.956-2.6 4.794-1.762.837.837.048 2.983-1.762 4.794-1.065 1.064-1.898 1.694-2.569 2.017l4.93 6.537 3.2-3.2c-1.617.346-3.089-.198-3.366-1.286-.294-1.156.873-2.489 2.606-2.976 2.928-.825 3.376.054 3.67 1.21.01.038.02.076.028.113l6.336-6.336-3.04-2.427c-.286.673-.949 1.565-2.208 2.824-1.81 1.81-3.956 2.599-4.793 1.762-.838-.838-.049-2.984 1.762-4.794 1.037-1.038 1.826-1.67 2.448-2.02l-5.755-4.595-.541-.433-.079-.696a5.757 5.757 0 0 0-2.753-4.294l-1.053-.634.29-1.219c.372-1.568-.041-3.27-1.25-4.479-1.874-1.875-4.928-1.828-6.82.064a5.05 5.05 0 0 0-.308.336l-.761.913-1.113-.338a5 5 0 0 0-4.988 1.268 5 5 0 0 0-1.268 4.988l.338 1.113Zm17.863-3.51a7.434 7.434 0 0 1 3.553 5.548l11.587 9.25c.797.637.845 1.843.102 2.586L30.28 43.027c-.757.757-1.988.691-2.614-.139l-8.914-11.82a7.435 7.435 0 0 1-5.582-3.557c-2.132.505-4.445-.056-6.082-1.694-2.536-2.535-2.491-6.692.1-9.282.147-.148.3-.287.456-.418-.697-2.291-.12-4.91 1.722-6.752 1.842-1.841 4.46-2.42 6.752-1.722.131-.157.27-.31.418-.456 2.59-2.591 6.747-2.636 9.282-.1 1.638 1.637 2.2 3.95 1.694 6.082Zm-10.817-.892c1.153 1.153 1.125 3.05-.062 4.237-1.188 1.188-3.085 1.215-4.238.062-1.153-1.153-1.125-3.05.062-4.237 1.187-1.188 3.085-1.215 4.238-.062Zm-2.302 6.959c1.109 1.108 1.082 2.933-.06 4.074-1.14 1.142-2.965 1.169-4.074.06s-1.082-2.933.06-4.075c1.141-1.141 2.966-1.168 4.074-.06Zm9.036-5.02c1.141-1.142 1.168-2.967.06-4.075-1.11-1.11-2.934-1.082-4.075.06-1.142 1.14-1.169 2.965-.06 4.074 1.109 1.108 2.933 1.082 4.075-.06Zm-3.45 13.255a3.789 3.789 0 0 1-3.868-3.867l.015-.968a1.572 1.572 0 0 1-.017-.254l.017-1.192a5.225 5.225 0 0 1 1.553-3.63 5.225 5.225 0 0 1 3.63-1.552l1.191-.018c.087-.001.172.005.254.017l.968-.014a3.789 3.789 0 0 1 3.867 3.867c-.03 2.055-1.634 3.764-3.648 3.963-.198 2.014-1.907 3.618-3.963 3.648Z" clip-rule="evenodd"/></svg>